<?xml version="1.0" ?><!DOCTYPE svg  PUBLIC '-//W3C//DTD SVG 1.1//EN'  'http://www.w3.org/Graphics/SVG/1.1/DTD/svg11.dtd'><svg height="2048px" style="shape-rendering:geometricPrecision; text-rendering:geometricPrecision; image-rendering:optimizeQuality; fill-rule:evenodd; clip-rule:evenodd" viewBox="0 0 2048 2048" width="2048px" xml:space="preserve" xmlns="http://www.w3.org/2000/svg" xmlns:xlink="http://www.w3.org/1999/xlink"><defs><style type="text/css">
   <![CDATA[
    .fil3 {fill:none}
    .fil2 {fill:#E6E6E5}
    .fil1 {fill:#F48F63}
    .fil0 {fill:#333333;fill-rule:nonzero}
   ]]>
  </style></defs><g id="Layer_x0020_1"><g id="_510215880"><path class="fil0" d="M477.276 1614.23l-118.12 -1324.85 -1.54843 -17.3752 17.4236 0 1297.94 0 17.426 0 -1.55079 17.3752 -118.247 1324.65 -0.987402 11.0492 -10.6382 2.9504 -531.515 147.354 -8.49922 0 -530.056 -147.148 -10.6406 -2.95512 -0.98504 -11.0445zm-84.8198 -1310.23l115.585 1296.43 515.168 143.015 516.624 -143.226 115.71 -1296.22 -1263.09 0z" id="_510216576"/><path class="fil0" d="M1023.44 1034.18l0.558662 0 199.523 0 17.4295 0 -1.55433 17.3752 -18.8599 210.738 -0.999213 11.1591 -10.7516 2.90315 -169.345 45.7087 0 0.0425197 -11.876 3.17362 -0.154725 0.0413386 -8.24883 0 -180.963 -48.8634 -10.7539 -2.90433 -0.996851 -11.1579 -10.2638 -114.966 -73.3607 0 -57.7583 0 20.2299 226.707 317.91 88.2603 318.446 -88.265 1.46102 -16.3984 38.1886 -427.784 0 -0.0625985 2.37992 -26.191 -26.3256 0 -333.356 0 -0.558662 0 -214.454 0 -14.5689 0 -1.3063 -14.6256 -14.8512 -166.389 -1.55079 -17.3752 17.426 0 229.305 0 0.558662 0 377.352 0 1.95236 -21.9 7.40552 -82.3701 2.33858 -26.2217 -389.048 0 -0.558662 0 -389.458 0 2.33977 26.2217 38.6327 433.144 348.486 0zm0.558662 32.0008l-0.558662 0 -363.057 0 -14.5701 0 -1.30512 -14.6256 -39.9366 -447.769 -3.89055 -43.5969 -1.54961 -17.3752 17.4248 0 406.884 0 0.558662 0 406.473 0 17.4248 0 -1.54961 17.3752 -3.88819 43.5969 -7.40552 82.3701 -3.2563 36.5256 -1.30394 14.6256 -14.5713 0 -0.518504 0 -391.405 0 -0.558662 0 -211.879 0 11.9953 134.388 199.884 0 0.558662 0 333.356 0 43.7859 0 17.4591 0 -1.58386 17.4378 -3.96496 43.6288 -0.00590552 0 -38.1827 427.721 -2.44488 27.4488 -0.98504 11.0492 -10.6406 2.9504 -330.97 91.7363 -1.32284 0.388583 -0.747638 0.219685 -8.74961 0.0625985 -332.846 -92.4072 -10.6394 -2.95394 -0.986221 -11.0457 -22.7669 -255.128 -1.54961 -17.3752 17.4248 0 75.1843 0 87.9296 0 14.5701 0 1.30512 14.6256 10.5744 118.434 166.065 44.8406 166.518 -44.9457 16.3051 -182.203 -182.092 0z" id="_510215136"/></g><path class="fil1" d="M1413.05 932.761l0 0zm-389.046 -389.948l406.473 0 17.4248 0 -1.54961 17.3752 -3.88819 43.5969 -7.40552 82.3701 -3.2563 36.5256 -1.30394 14.6256 -14.5713 0 -0.518504 0 -391.405 0 -0.558662 0 -211.879 0 11.9953 134.388 199.884 0 0.558662 0 333.356 0 43.7859 0 17.4591 0 -1.58386 17.4378 -3.97087 43.6288 -38.1827 427.721 -2.44488 27.4488 -0.98504 11.0492 -10.6406 2.9504 -330.97 91.7363 -1.32284 0.388583 -0.747638 0.219685 -8.74961 0.0625985 -332.846 -92.4072 -10.6394 -2.95394 -0.986221 -11.0457 -22.7669 -255.128 -1.54961 -17.3752 17.4248 0 75.1843 0 87.9296 0 14.5701 0 1.30512 14.6256 10.5744 118.434 166.065 44.8406 166.518 -44.9457 16.3051 -182.203 -182.092 0 -0.558662 0 -363.057 0 -14.5701 0 -1.30512 -14.6256 -39.9366 -447.769 -3.89055 -43.5969 -1.54961 -17.3752 17.4248 0 406.884 0 0.558662 0zm-631.545 -238.813l115.585 1296.43 515.168 143.015 516.624 -143.226 115.71 -1296.22 -1263.09 0z"/><polygon class="fil2" points="1413.05,574.813 1024,574.813 1023.44,574.813 633.984,574.813 636.324,601.035 674.957,1034.18 1023.44,1034.18 1024,1034.18 1223.52,1034.18 1240.95,1034.18 1239.4,1051.55 1220.54,1262.29 1219.54,1273.45 1208.79,1276.35 1039.44,1322.06 1039.44,1322.11 1027.57,1325.28 1027.41,1325.32 1019.16,1325.32 838.201,1276.46 827.447,1273.55 826.45,1262.4 816.186,1147.43 742.825,1147.43 685.067,1147.43 705.297,1374.14 1023.21,1462.4 1341.65,1374.13 1343.11,1357.73 1381.3,929.949 1381.3,929.886 1383.68,903.695 1357.36,903.695 1024,903.695 1023.44,903.695 808.988,903.695 794.42,903.695 793.113,889.07 778.262,722.68 776.711,705.305 794.137,705.305 1023.44,705.305 1024,705.305 1401.35,705.305 1403.31,683.405 1410.71,601.035 "/></g><rect class="fil3" height="2048" width="2048"/></svg>
