<svg height="99.176" viewBox="0 0 99.176 99.176" width="99.176" xmlns="http://www.w3.org/2000/svg"><path d="M57.579 35.783a4.187 4.187 0 0 0 0 5.909l5.106 5.105a1.394 1.394 0 0 1-1.972 1.973l-9.598-9.597a4.176 4.176 0 0 0-5.906 5.906l7.623 7.623a1.39 1.39 0 0 1-.002 1.959 1.396 1.396 0 0 1-1.974.016L39.933 43.752a4.174 4.174 0 0 0-5.906.002 4.174 4.174 0 0 0-.001 5.904L44.95 60.584a1.392 1.392 0 0 1-.014 1.971 1.389 1.389 0 0 1-1.959.002L17.831 37.411a4.176 4.176 0 1 0-5.906 5.906l34.999 34.998-10.165-10.018c-2.998-.635-5.925 1.061-6.566 3.803-.621 2.748 1.296 5.492 4.279 6.146 0 0 16.876 11.85 23.787 13.27 6.916 1.436 14.625.25 22.939-8.064 13.76-13.758 4.368-25.613 1.193-28.787L63.499 35.771c-1.627-1.627-4.285-1.625-5.92.012z" fill="#FFF" stroke="#58595B" stroke-miterlimit="10" stroke-width="3.483"/><path d="M57.579 35.783a4.187 4.187 0 0 0 0 5.909l5.106 5.105a1.394 1.394 0 0 1-1.972 1.973l-9.598-9.597a4.176 4.176 0 0 0-5.906 5.906l7.623 7.623a1.39 1.39 0 0 1-.002 1.959 1.396 1.396 0 0 1-1.974.016L39.933 43.752a4.174 4.174 0 0 0-5.906.002 4.174 4.174 0 0 0-.001 5.904L44.95 60.584a1.392 1.392 0 0 1-.014 1.971 1.389 1.389 0 0 1-1.959.002L17.831 37.411a4.176 4.176 0 1 0-5.906 5.906l34.999 34.998-10.165-10.018c-2.998-.635-5.925 1.061-6.566 3.803-.621 2.748 1.296 5.492 4.279 6.146 0 0 16.876 11.85 23.787 13.27 6.916 1.436 14.625.25 22.939-8.064 13.76-13.758 4.368-25.613 1.193-28.787L63.499 35.771c-1.627-1.627-4.285-1.625-5.92.012z" fill="#FFF" stroke="#58595B" stroke-linecap="round" stroke-linejoin="round" stroke-miterlimit="10"/><path clip-rule="evenodd" d="M21.597 16.406c-1.064 2.578-4.611 7.087-.412 8.452 4.701 1.528 9.213.332 13.502.929.975-.889 1.217-2.357.311-2.99-.447-.514-.894.053-1.34.104-3.436-.188-6.872.336-10.307-.619 4.357-5.956 11.238-11.539 17.934-12.367 3.355-.418 8.207.045 10.926 1.854 1.281.852 1.475 2.324 3.094 2.682.857.18 1.168-1.521 1.235-2.268-2.73-3.281-6.338-4.63-9.688-4.948-8.086-.761-16.188 3.183-22.984 10.821.532-2.885 2.258-5.77 3.504-8.659-.275-.718.043-1.441-.721-2.163-2.946 2.048-3.629 5.72-5.054 9.172z" fill="#939598" fill-rule="evenodd"/></svg>